PathFileType	4	(X/Y/Z)	./resultDataOpenSim/trcMotMarkerGrf/sub10/qtm-13-03.trc
DataRate	CameraRate	NumFrames	NumMarkers	Units	OrigDataRate	OrigDataStartFrame	OrigNumFrames
250.000000	250.000000	12	24	m	250.000000	426	486
Frame#	Time	L.Toe.Tip			R.Toe.Tip			L.Ankle.Lat			R.Ankle.Lat			L.Ankle.Med			R.Ankle.Med			L.Heel			R.Heel			L.Knee.Lat			R.Knee.Lat			L.Knee.Med			R.Knee.Med			L.Thigh.Upper			R.Thigh.Upper			L.ASIS			R.ASIS			V.Sacral			L.Acromium			R.Acromium			C7			L.Elbow			R.Elbow			L.Wrist.Lat			R.Wrist.Lat
		X1	Y1	Z1	X2	Y2	Z2	X3	Y3	Z3	X4	Y4	Z4	X5	Y5	Z5	X6	Y6	Z6	X7	Y7	Z7	X8	Y8	Z8	X9	Y9	Z9	X10	Y10	Z10	X11	Y11	Z11	X12	Y12	Z12	X13	Y13	Z13	X14	Y14	Z14	X15	Y15	Z15	X16	Y16	Z16	X17	Y17	Z17	X18	Y18	Z18	X19	Y19	Z19	X20	Y20	Z20	X21	Y21	Z21	X22	Y22	Z22	X23	Y23	Z23	X24	Y24	Z24

426	1.7	1.6069528	0.054683915	-0.19846161	0.80128312	0.037127391	0.042769664	1.4720939	0.06555028	-0.22968214	0.70321799	0.1343879	0.08360307	1.4804203	0.088418108	-0.1462969	0.73495184	0.13822933	-8.7909653e-05	1.4103752	0.02927253	-0.18975771	0.64841291	0.14188561	0.037584091	1.3938313	0.44577548	-0.23355357	0.9886004	0.41656034	0.080048834	1.4133317	0.42051702	-0.11233573	1.0191944	0.3995728	-0.043414683	1.2403341	0.8025133	-0.27111085	1.0969076	0.80479433	0.096393173	1.2610618	0.90634833	-0.17991774	1.1905395	0.89562565	0.058811214	1.037645	0.8975395	-0.13132963	1.1918233	1.3634587	-0.21863974	1.1423004	1.3582022	0.098331205	1.0875066	1.3914237	-0.075806314	1.0237828	1.0777568	-0.32315812	1.0345574	1.0362016	0.22238469	1.0805114	0.84268954	-0.33482185	1.2519501	0.91237009	0.23168888
427	1.704	1.6086413	0.051819536	-0.1979492	0.80198492	0.036983716	0.042503936	1.4737653	0.065348946	-0.22972378	0.7069347	0.13757775	0.082600549	1.4824627	0.088347018	-0.14631556	0.73996076	0.14001924	-0.00048882955	1.4113217	0.03007522	-0.19012037	0.65319838	0.14616062	0.035812964	1.401748	0.44706511	-0.23429933	0.99582648	0.41587714	0.079237683	1.4211951	0.42157942	-0.11273802	1.0273082	0.39779986	-0.043881092	1.2471627	0.80322951	-0.27284326	1.1045319	0.80307429	0.095154039	1.2672977	0.90625223	-0.1816523	1.1978712	0.8943079	0.056924267	1.0437846	0.89718995	-0.13200351	1.198529	1.3626966	-0.22000007	1.1492443	1.3578069	0.097045243	1.0941918	1.3909223	-0.07726631	1.0310956	1.0767857	-0.32434343	1.0409123	1.0355528	0.22020276	1.0868981	0.84159849	-0.33643561	1.2583058	0.9114627	0.22864961
428	1.708	1.6101337	0.04955825	-0.1972004	0.80278811	0.036833808	0.042228355	1.4752448	0.06525572	-0.22953949	0.71108761	0.14080337	0.081544354	1.4840601	0.088291646	-0.14614628	0.74534833	0.14172725	-0.00089931564	1.4121372	0.030750232	-0.19034755	0.65844823	0.1504889	0.03379886	1.4097716	0.44843114	-0.23494536	1.0033446	0.41519619	0.078447003	1.4286637	0.42259133	-0.11312043	1.0356876	0.39596309	-0.044272305	1.2539316	0.80405639	-0.27453694	1.1124245	0.80132529	0.093908466	1.2735228	0.90622817	-0.18335243	1.2051672	0.89301769	0.05497766	1.0499881	0.8968558	-0.13263083	1.2052448	1.3619722	-0.22133668	1.1562024	1.3574572	0.095789128	1.1009369	1.3905511	-0.07866994	1.038456	1.0758354	-0.32551774	1.0472232	1.0349833	0.21800232	1.0934823	0.8405586	-0.3380983	1.2645879	0.91056064	0.22571163
429	1.712	1.6114853	0.047868733	-0.1964085	0.80370172	0.036689527	0.041938111	1.4765036	0.065255346	-0.22919934	0.71567896	0.14403329	0.080462381	1.4853642	0.088245095	-0.14583848	0.75111904	0.14336413	-0.0013159916	1.4128213	0.031317614	-0.19036643	0.66419483	0.15482666	0.031677323	1.4178511	0.44978058	-0.23548176	1.0111728	0.41450232	0.077630768	1.4357098	0.42366589	-0.11353848	1.0443582	0.39403162	-0.044620836	1.2606439	0.80495507	-0.2761836	1.1204547	0.79955162	0.092665157	1.2797371	0.90626167	-0.18498826	1.2124244	0.89173761	0.052974781	1.056257	0.89655457	-0.13323556	1.2119763	1.36129	-0.22264103	1.1632244	1.3571382	0.094531177	1.1077145	1.390281	-0.080015679	1.0458528	1.0749043	-0.3266704	1.0535136	1.0345028	0.21578721	1.100255	0.83956982	-0.33979756	1.2707957	0.90965747	0.22286539
430	1.716	1.6127279	0.046530769	-0.19580198	0.80472317	0.0365605	0.041625958	1.4775412	0.06534443	-0.22879185	0.72065902	0.14725166	0.079360549	1.4864989	0.088208758	-0.1454639	0.75724691	0.14492928	-0.0017283103	1.4134275	0.031812662	-0.19024721	0.67041952	0.15913845	0.029589888	1.4258933	0.45103502	-0.23592258	1.0192957	0.41377907	0.076784209	1.4419199	0.42493663	-0.11419957	1.0533269	0.39197857	-0.044927211	1.2672783	0.80588835	-0.27779841	1.1283458	0.79776127	0.091453073	1.2859541	0.90634035	-0.18657194	1.2196376	0.89045701	0.0509105	1.0625733	0.89631521	-0.13384547	1.2186855	1.3606574	-0.22392222	1.1703292	1.356839	0.09324651	1.1144945	1.3900719	-0.081309902	1.0532699	1.0739852	-0.32778834	1.0598036	1.0341005	0.21354953	1.1072071	0.8386351	-0.34152881	1.2769322	0.90875326	0.22010879
431	1.72	1.6138914	0.045349494	-0.1954819	0.80585197	0.036435915	0.041299924	1.4783956	0.065499917	-0.22838148	0.72598151	0.15044573	0.078252275	1.487539	0.088186351	-0.14508572	0.76368158	0.14639871	-0.0021140631	1.4140117	0.032255715	-0.19009601	0.67706404	0.1634168	0.027606604	1.4337995	0.45214345	-0.23631193	1.0277259	0.41298764	0.075949738	1.446954	0.4265196	-0.11527796	1.0625784	0.38979331	-0.045167241	1.2738012	0.80682159	-0.27939335	1.1359695	0.79596182	0.090295871	1.2921907	0.90646075	-0.18814629	1.2267963	0.88918103	0.048791961	1.0689134	0.89616366	-0.13444752	1.2253477	1.3600754	-0.22519032	1.1774953	1.3565595	0.091933561	1.1212568	1.3898853	-0.08255471	1.0606837	1.0730707	-0.32886856	1.0660909	1.0337501	0.21127148	1.1143366	0.83775477	-0.3432924	1.2830073	0.90785532	0.21744949
432	1.724	1.614996	0.044271895	-0.19539413	0.80708291	0.036283152	0.040970842	1.4791322	0.065674553	-0.22799517	0.7316421	0.15358869	0.077175508	1.4885165	0.088174535	-0.1447361	0.77036033	0.14774881	-0.0024346331	1.4145625	0.032640188	-0.18992685	0.68405053	0.1676762	0.025751754	1.441497	0.45308162	-0.23669867	1.0365163	0.4120695	0.075182067	1.4512858	0.42838992	-0.11663191	1.072094	0.38748325	-0.045343189	1.2801948	0.80772746	-0.28096571	1.143445	0.79416391	0.089213405	1.2984518	0.90662382	-0.18973215	1.2338892	0.88792599	0.046638426	1.0752668	0.89606678	-0.13497431	1.2319659	1.359539	-0.22644786	1.1846843	1.3563055	0.090607678	1.1279922	1.3897	-0.083751466	1.0680727	1.0721607	-0.32991337	1.0723574	1.0334303	0.20893999	1.1216425	0.83692606	-0.34508936	1.2890335	0.90696743	0.21489292
433	1.728	1.6160225	0.043327219	-0.19540867	0.80838801	0.036074661	0.040621517	1.4798031	0.065816069	-0.22763465	0.7376602	0.15665235	0.076186617	1.4894242	0.088161119	-0.14441812	0.77722155	0.14899158	-0.0026546842	1.4150307	0.032955083	-0.18970983	0.69131035	0.17194697	0.024052631	1.4489369	0.45383405	-0.23711152	1.0457017	0.41097991	0.074509889	1.4560198	0.43036137	-0.11786331	1.0818594	0.38506359	-0.045492049	1.2864667	0.80858258	-0.28250926	1.1509348	0.79238122	0.088217938	1.3047264	0.90682888	-0.19131493	1.2409024	0.88669691	0.044460377	1.0816197	0.89592773	-0.13535455	1.2385467	1.3590409	-0.22769338	1.1918598	1.3560751	0.089285986	1.1346888	1.3895053	-0.084908577	1.0754287	1.0712599	-0.33091591	1.0785941	1.0331403	0.20656653	1.1291156	0.8361475	-0.3469204	1.2950175	0.90608427	0.21243787
434	1.732	1.6169165	0.042547649	-0.19540262	0.80973982	0.035826877	0.040206481	1.4804176	0.065892025	-0.22729852	0.74401993	0.1596346	0.075334395	1.4902235	0.088132759	-0.1441274	0.78420446	0.15019576	-0.0027917223	1.4154011	0.033205108	-0.18946445	0.69879906	0.17626552	0.022555437	1.4560721	0.45437633	-0.23755489	1.0551806	0.40973544	0.073917616	1.4617865	0.43223643	-0.11873059	1.0918573	0.38254428	-0.045646268	1.292635	0.80936237	-0.28402626	1.158426	0.79062255	0.087266332	1.3109946	0.90706833	-0.19287178	1.2478196	0.88547744	0.042258961	1.0879334	0.89566358	-0.13557629	1.245089	1.3585762	-0.22892348	1.1989963	1.3558538	0.087976577	1.1413255	1.3892821	-0.086040295	1.0827548	1.070371	-0.33186661	1.0848155	1.0328975	0.20418764	1.1367452	0.83541977	-0.34878679	1.3009565	0.90519601	0.21008212
435	1.736	1.6176337	0.041938454	-0.19531945	0.81116148	0.035628416	0.039680344	1.4809503	0.065903864	-0.22699362	0.75065015	0.16255519	0.074630783	1.4908863	0.088083531	-0.14386396	0.79125377	0.1514672	-0.0029175575	1.4156916	0.033405923	-0.18924288	0.70647856	0.18064867	0.02129864	1.4628515	0.45467547	-0.23801749	1.0647207	0.40840753	0.073360922	1.4683929	0.43391348	-0.11930394	1.1020597	0.37993135	-0.045816406	1.2987139	0.81004513	-0.28552609	1.1657293	0.7888865	0.086262486	1.3172346	0.90732549	-0.19438873	1.2546317	0.88424788	0.040049229	1.0941775	0.89528182	-0.13571131	1.2515906	1.3581422	-0.23013402	1.2060791	1.3556271	0.086678107	1.147882	1.3890048	-0.087162781	1.0900555	1.0694934	-0.33276845	1.0910431	1.0327137	0.20183347	1.1445309	0.83474357	-0.35068795	1.3068426	0.90429482	0.2078233
436	1.74	1.6181722	0.041477882	-0.19518297	0.81273321	0.035636444	0.039024295	1.4813737	0.065878619	-0.22672946	0.75746514	0.1654416	0.07404429	1.4914328	0.088020909	-0.14362957	0.79834119	0.15289315	-0.003088143	1.415916	0.033570881	-0.18906918	0.71430276	0.18508194	0.020272333	1.469231	0.45470633	-0.23848336	1.0741589	0.40705595	0.072808413	1.4754816	0.43535822	-0.11974731	1.1124275	0.37723892	-0.046007919	1.3047127	0.81061841	-0.28701625	1.1726919	0.78716513	0.0851406	1.3234268	0.90758485	-0.1958611	1.2613444	0.88300246	0.037866737	1.1003669	0.89487526	-0.13587694	1.2580493	1.3577367	-0.23132279	1.2131011	1.3553913	0.08538617	1.1543522	1.3886619	-0.088288118	1.0973305	1.0686254	-0.33363734	1.0972713	1.0325722	0.19950206	1.1524756	0.83411686	-0.35261762	1.312671	0.90337773	0.20565865
437	1.744	1.6185676	0.041130378	-0.19505224	0.81454757	0.036024146	0.038259506	1.4816865	0.06584539	-0.22651139	0.76441509	0.16833707	0.073524456	1.4919146	0.087962816	-0.14342569	0.80547482	0.15450926	-0.0033085696	1.4160819	0.033706595	-0.18893381	0.72224956	0.18954859	0.019418448	1.4751856	0.45447002	-0.23894159	1.0835123	0.40569635	0.072263685	1.4828979	0.43655303	-0.12015292	1.1229182	0.37449734	-0.046231541	1.3106355	0.81107789	-0.28849829	1.1793443	0.78545812	0.083904213	1.3295531	0.90784356	-0.19728923	1.2679659	0.88174866	0.035743776	1.1065408	0.8945323	-0.13615523	1.2644602	1.3573602	-0.23249172	1.220058	1.3551544	0.08409857	1.1607384	1.3882675	-0.08941895	1.1045756	1.0677654	-0.33449421	1.1034506	1.0324331	0.19717092	1.1605743	0.83353304	-0.35456706	1.3184427	0.90244441	0.20358704
